<svg width="34" height="33" viewBox="0 0 34 33" fill="none" xmlns="http://www.w3.org/2000/svg">
<path d="M10.9899 21.2615C10.756 20.9828 10.7698 20.5786 11.008 20.3167L11.0785 20.2489L22.0904 11.0089C22.3945 10.7537 22.8478 10.7934 23.103 11.0975C23.3369 11.3762 23.323 11.7804 23.0849 12.0423L23.0144 12.1101L12.0025 21.3501C11.6984 21.6053 11.2451 21.5656 10.9899 21.2615Z" fill="white"/>
<path d="M14.3389 11.5797C13.9434 11.546 13.6501 11.198 13.6838 10.8025C13.7145 10.4429 14.0049 10.1679 14.3546 10.1462L14.4611 10.1475L22.6134 10.843C22.974 10.8738 23.2494 11.1657 23.2698 11.5165L23.2681 11.6233L22.5381 19.7732C22.5027 20.1686 22.1535 20.4604 21.7581 20.425C21.3987 20.3928 21.1248 20.1012 21.1046 19.7514L21.1063 19.645L21.7716 12.2139L14.3389 11.5797Z" fill="white"/>
</svg>
