<svg width="437" height="138" viewBox="0 0 437 138" fill="none" xmlns="http://www.w3.org/2000/svg">
<path d="M126.895 54.5684L116.655 82.4884H109.855L99.6152 54.5684H105.615L113.295 76.7684L120.935 54.5684H126.895ZM128.813 71.3284C128.813 69.0884 129.253 67.1017 130.133 65.3684C131.039 63.6351 132.253 62.3017 133.773 61.3684C135.319 60.4351 137.039 59.9684 138.933 59.9684C140.586 59.9684 142.026 60.3017 143.253 60.9684C144.506 61.6351 145.506 62.4751 146.253 63.4884V60.3284H151.893V82.4884H146.253V79.2484C145.533 80.2884 144.533 81.1551 143.253 81.8484C141.999 82.5151 140.546 82.8484 138.893 82.8484C137.026 82.8484 135.319 82.3684 133.773 81.4084C132.253 80.4484 131.039 79.1017 130.133 77.3684C129.253 75.6084 128.813 73.5951 128.813 71.3284ZM146.253 71.4084C146.253 70.0484 145.986 68.8884 145.453 67.9284C144.919 66.9417 144.199 66.1951 143.293 65.6884C142.386 65.1551 141.413 64.8884 140.373 64.8884C139.333 64.8884 138.373 65.1417 137.493 65.6484C136.613 66.1551 135.893 66.9017 135.333 67.8884C134.799 68.8484 134.533 69.9951 134.533 71.3284C134.533 72.6617 134.799 73.8351 135.333 74.8484C135.893 75.8351 136.613 76.5951 137.493 77.1284C138.399 77.6617 139.359 77.9284 140.373 77.9284C141.413 77.9284 142.386 77.6751 143.293 77.1684C144.199 76.6351 144.919 75.8884 145.453 74.9284C145.986 73.9417 146.253 72.7684 146.253 71.4084ZM162.962 52.8884V82.4884H157.362V52.8884H162.962ZM178.335 82.8484C176.202 82.8484 174.282 82.3817 172.575 81.4484C170.868 80.4884 169.522 79.1417 168.535 77.4084C167.575 75.6751 167.095 73.6751 167.095 71.4084C167.095 69.1417 167.588 67.1417 168.575 65.4084C169.588 63.6751 170.962 62.3417 172.695 61.4084C174.428 60.4484 176.362 59.9684 178.495 59.9684C180.628 59.9684 182.562 60.4484 184.295 61.4084C186.028 62.3417 187.388 63.6751 188.375 65.4084C189.388 67.1417 189.895 69.1417 189.895 71.4084C189.895 73.6751 189.375 75.6751 188.335 77.4084C187.322 79.1417 185.935 80.4884 184.175 81.4484C182.442 82.3817 180.495 82.8484 178.335 82.8484ZM178.335 77.9684C179.348 77.9684 180.295 77.7284 181.175 77.2484C182.082 76.7417 182.802 75.9951 183.335 75.0084C183.868 74.0217 184.135 72.8217 184.135 71.4084C184.135 69.3017 183.575 67.6884 182.455 66.5684C181.362 65.4217 180.015 64.8484 178.415 64.8484C176.815 64.8484 175.468 65.4217 174.375 66.5684C173.308 67.6884 172.775 69.3017 172.775 71.4084C172.775 73.5151 173.295 75.1417 174.335 76.2884C175.402 77.4084 176.735 77.9684 178.335 77.9684ZM199.603 63.7684C200.323 62.5951 201.256 61.6751 202.403 61.0084C203.576 60.3417 204.909 60.0084 206.403 60.0084V65.8884H204.923C203.163 65.8884 201.829 66.3017 200.923 67.1284C200.043 67.9551 199.603 69.3951 199.603 71.4484V82.4884H194.003V60.3284H199.603V63.7684Z" fill="white"/>
<path d="M226.015 68.1684C227.588 68.4617 228.881 69.2484 229.895 70.5284C230.908 71.8084 231.415 73.2751 231.415 74.9284C231.415 76.4217 231.041 77.7417 230.295 78.8884C229.575 80.0084 228.521 80.8884 227.135 81.5284C225.748 82.1684 224.108 82.4884 222.215 82.4884H210.175V54.5684H221.695C223.588 54.5684 225.215 54.8751 226.575 55.4884C227.961 56.1017 229.001 56.9551 229.695 58.0484C230.415 59.1417 230.775 60.3817 230.775 61.7684C230.775 63.3951 230.335 64.7551 229.455 65.8484C228.601 66.9417 227.455 67.7151 226.015 68.1684ZM215.775 66.0884H220.895C222.228 66.0884 223.255 65.7951 223.975 65.2084C224.695 64.5951 225.055 63.7284 225.055 62.6084C225.055 61.4884 224.695 60.6217 223.975 60.0084C223.255 59.3951 222.228 59.0884 220.895 59.0884H215.775V66.0884ZM221.415 77.9284C222.775 77.9284 223.828 77.6084 224.575 76.9684C225.348 76.3284 225.735 75.4217 225.735 74.2484C225.735 73.0484 225.335 72.1151 224.535 71.4484C223.735 70.7551 222.655 70.4084 221.295 70.4084H215.775V77.9284H221.415ZM234.438 71.3284C234.438 69.0884 234.878 67.1017 235.758 65.3684C236.664 63.6351 237.878 62.3017 239.398 61.3684C240.944 60.4351 242.664 59.9684 244.558 59.9684C246.211 59.9684 247.651 60.3017 248.878 60.9684C250.131 61.6351 251.131 62.4751 251.878 63.4884V60.3284H257.518V82.4884H251.878V79.2484C251.158 80.2884 250.158 81.1551 248.878 81.8484C247.624 82.5151 246.171 82.8484 244.518 82.8484C242.651 82.8484 240.944 82.3684 239.398 81.4084C237.878 80.4484 236.664 79.1017 235.758 77.3684C234.878 75.6084 234.438 73.5951 234.438 71.3284ZM251.878 71.4084C251.878 70.0484 251.611 68.8884 251.078 67.9284C250.544 66.9417 249.824 66.1951 248.918 65.6884C248.011 65.1551 247.038 64.8884 245.998 64.8884C244.958 64.8884 243.998 65.1417 243.118 65.6484C242.238 66.1551 241.518 66.9017 240.958 67.8884C240.424 68.8484 240.158 69.9951 240.158 71.3284C240.158 72.6617 240.424 73.8351 240.958 74.8484C241.518 75.8351 242.238 76.5951 243.118 77.1284C244.024 77.6617 244.984 77.9284 245.998 77.9284C247.038 77.9284 248.011 77.6751 248.918 77.1684C249.824 76.6351 250.544 75.8884 251.078 74.9284C251.611 73.9417 251.878 72.7684 251.878 71.4084ZM275.267 60.0084C277.907 60.0084 280.04 60.8484 281.667 62.5284C283.294 64.1817 284.107 66.5017 284.107 69.4884V82.4884H278.507V70.2484C278.507 68.4884 278.067 67.1417 277.187 66.2084C276.307 65.2484 275.107 64.7684 273.587 64.7684C272.04 64.7684 270.814 65.2484 269.907 66.2084C269.027 67.1417 268.587 68.4884 268.587 70.2484V82.4884H262.987V60.3284H268.587V63.0884C269.334 62.1284 270.28 61.3817 271.427 60.8484C272.6 60.2884 273.88 60.0084 275.267 60.0084ZM302.552 82.4884L295.032 73.0484V82.4884H289.432V52.8884H295.032V69.7284L302.472 60.3284H309.752L299.992 71.4484L309.832 82.4884H302.552Z" fill="#5CE1E6"/>
<path d="M66 0C57.3328 -1.03356e-07 48.7504 1.70714 40.7429 5.02395C32.7354 8.34076 25.4596 13.2023 19.3309 19.331C13.2023 25.4596 8.34076 32.7354 5.02395 40.7429C1.70714 48.7504 -1.30872e-06 57.3328 0 66H33C33 61.6664 33.8536 57.3752 35.512 53.3714C37.1704 49.3677 39.6011 45.7298 42.6655 42.6655C45.7298 39.6011 49.3677 37.1704 53.3714 35.512C57.3752 33.8536 61.6664 33 66 33V0Z" fill="#33BBCF"/>
<circle cx="66" cy="66" r="20.625" fill="#33BBCF"/>
<path d="M86.625 66C86.625 63.2915 86.0915 60.6095 85.055 58.1072C84.0185 55.6048 82.4993 53.3311 80.5841 51.4159C78.6689 49.5007 76.3952 47.9815 73.8928 46.945C71.3905 45.9085 68.7085 45.375 66 45.375C63.2915 45.375 60.6095 45.9085 58.1072 46.945C55.6048 47.9815 53.3311 49.5007 51.4159 51.4159C49.5007 53.3311 47.9815 55.6048 46.945 58.1072C45.9085 60.6095 45.375 63.2915 45.375 66L66 66H86.625Z" fill="white"/>
</svg>
