<svg width="40" height="40" viewBox="0 0 40 40" fill="none" xmlns="http://www.w3.org/2000/svg">
<path fill-rule="evenodd" clip-rule="evenodd" d="M19.5651 35.8619C19.7423 35.9544 19.9404 36.0015 20.1385 35.9999C20.3367 35.9984 20.5332 35.9497 20.712 35.8556L26.4206 32.8039C28.0394 31.941 29.3071 30.9761 30.2961 29.8527C32.4465 27.4051 33.6208 24.2813 33.5998 21.0602L33.5322 10.4352C33.5257 9.21138 32.722 8.11938 31.5332 7.72243L20.9133 4.1593C20.2738 3.94279 19.5732 3.94749 18.9449 4.17029L8.36534 7.8605C7.18303 8.27314 6.39374 9.37298 6.40019 10.5983L6.46784 21.2155C6.48878 24.4413 7.70331 27.551 9.88914 29.9735C10.8878 31.0812 12.1668 32.032 13.8033 32.8808L19.5651 35.8619ZM18.0539 23.3743C18.2923 23.6034 18.6015 23.7163 18.9108 23.7132C19.2201 23.7116 19.5277 23.5955 19.7629 23.3633L26.0015 17.213C26.4702 16.7501 26.4654 16.0064 25.9918 15.5498C25.5166 15.0933 24.7515 15.0964 24.2828 15.5593L18.8931 20.8718L16.6863 18.7505C16.2111 18.294 15.4476 18.2987 14.9773 18.7615C14.5085 19.2244 14.5134 19.9681 14.9886 20.4246L18.0539 23.3743Z" fill="#00F6FF"/>
</svg>
