<svg width="40" height="40" viewBox="0 0 40 40" fill="none" xmlns="http://www.w3.org/2000/svg">
<path d="M29.4697 23.7122C29.0553 24.1138 28.8649 24.6946 28.9593 25.2642L30.3817 33.1362C30.5017 33.8034 30.2201 34.4786 29.6617 34.8642C29.1145 35.2642 28.3865 35.3122 27.7897 34.9922L20.7033 31.2962C20.4569 31.165 20.1833 31.0946 19.9033 31.0866H19.4697C19.3193 31.109 19.1721 31.157 19.0377 31.2306L11.9497 34.9442C11.5993 35.1202 11.2025 35.1826 10.8137 35.1202C9.86651 34.941 9.23451 34.0386 9.38971 33.0866L10.8137 25.2146C10.9081 24.6402 10.7177 24.0562 10.3033 23.6482L4.52571 18.0482C4.04251 17.5794 3.87451 16.8754 4.09531 16.2402C4.30971 15.6066 4.85691 15.1442 5.51771 15.0402L13.4697 13.8866C14.0745 13.8242 14.6057 13.4562 14.8777 12.9122L18.3817 5.72817C18.4649 5.56817 18.5721 5.42097 18.7017 5.29617L18.8457 5.18417C18.9209 5.10097 19.0073 5.03217 19.1033 4.97617L19.2777 4.91217L19.5497 4.80017H20.2233C20.8249 4.86257 21.3545 5.22257 21.6313 5.76017L25.1817 12.9122C25.4377 13.4354 25.9353 13.7986 26.5097 13.8866L34.4617 15.0402C35.1337 15.1362 35.6953 15.6002 35.9177 16.2402C36.1273 16.8818 35.9465 17.5858 35.4537 18.0482L29.4697 23.7122Z" fill="#00F6FF"/>
</svg>
